<svg width="100" height="100" viewBox="0 0 100 100" fill="none" xmlns="http://www.w3.org/2000/svg">
    <path d="M100 28.125V84.375C100 89.5508 95.8008 93.75 90.625 93.75H9.375C4.19922 93.75 0 89.5508 0 84.375V28.125C0 22.9492 4.19922 18.75 9.375 18.75H26.5625L28.9648 12.3242C30.332 8.67187 33.8281 6.25 37.7344 6.25H62.2461C66.1523 6.25 69.6484 8.67187 71.0156 12.3242L73.4375 18.75H90.625C95.8008 18.75 100 22.9492 100 28.125ZM73.4375 56.25C73.4375 43.3203 62.9297 32.8125 50 32.8125C37.0703 32.8125 26.5625 43.3203 26.5625 56.25C26.5625 69.1797 37.0703 79.6875 50 79.6875C62.9297 79.6875 73.4375 69.1797 73.4375 56.25ZM67.1875 56.25C67.1875 65.7227 59.4727 73.4375 50 73.4375C40.5273 73.4375 32.8125 65.7227 32.8125 56.25C32.8125 46.7773 40.5273 39.0625 50 39.0625C59.4727 39.0625 67.1875 46.7773 67.1875 56.25Z" fill="black"/>
</svg>
